<?xml version="1.0" standalone="no"?>
<svg viewBox="0 0 200 200" xmlns="http://www.w3.org/2000/svg">
  <path fill="#A1A1AA" d="M46.8,-81.3C61,-72.9,72.9,-61,81.3,-46.8C89.7,-32.7,94.5,-16.3,93.2,-0.7C91.9,14.8,84.5,29.7,75.3,42.4C66.1,55.1,55.1,65.7,42.2,73.5C29.4,81.4,14.7,86.5,-0.6,87.4C-15.8,88.4,-31.6,85.2,-44.9,77.6C-58.2,70.1,-69.1,58.1,-77.5,44.4C-86,30.8,-92.1,15.4,-92.7,-0.4C-93.4,-16.1,-88.6,-32.3,-80.1,-45.8C-71.5,-59.3,-59.2,-70.2,-45.2,-78.8C-31.2,-87.3,-15.6,-93.4,0.4,-94C16.3,-94.7,32.7,-89.8,46.8,-81.3Z" transform="translate(100 100)" />
</svg>
